<svg xmlns="http://www.w3.org/2000/svg" viewBox="0 0 600 800" role="img" aria-labelledby="title desc">
  <title id="title">Freak the Mighty memory artwork</title>
  <desc id="desc">Original abstract artwork with two towers joined beneath a star.</desc>
  <defs>
    <linearGradient id="bg" x1="0" y1="0" x2="1" y2="1">
      <stop stop-color="#18365f"/>
      <stop offset="1" stop-color="#a33a18"/>
    </linearGradient>
  </defs>
  <rect width="600" height="800" fill="url(#bg)"/>
  <circle cx="300" cy="255" r="170" fill="#f5c85b" opacity=".16"/>
  <path d="M300 115l18 54 57 1-46 34 17 55-46-33-46 33 17-55-46-34 57-1z" fill="#ffd86a"/>
  <rect x="135" y="315" width="118" height="270" rx="12" fill="#f7eee0"/>
  <rect x="347" y="245" width="118" height="340" rx="12" fill="#f7eee0"/>
  <path d="M253 405c48-55 64-55 94 0" fill="none" stroke="#ffd86a" stroke-width="20" stroke-linecap="round"/>
  <g fill="#18365f">
    <rect x="165" y="355" width="58" height="18" rx="9"/>
    <rect x="165" y="403" width="58" height="18" rx="9"/>
    <rect x="377" y="300" width="58" height="18" rx="9"/>
    <rect x="377" y="348" width="58" height="18" rx="9"/>
  </g>
  <text x="300" y="670" text-anchor="middle" fill="#fff7e9" font-family="Aptos,Segoe UI,sans-serif" font-size="22" font-weight="700" letter-spacing="5">A THEATRE MEMORY</text>
  <text x="300" y="720" text-anchor="middle" fill="#fff7e9" font-family="Georgia,serif" font-size="42" font-weight="700">Freak the Mighty</text>
</svg>
